<svg width="48" height="48" viewBox="0 0 48 48" fill="none" xmlns="http://www.w3.org/2000/svg">
<path d="M22.02 6.09999C13.02 7.07999 6 14.72 6 24C6 28.7739 7.89642 33.3523 11.2721 36.7279C14.6477 40.1036 19.2261 42 24 42C33.26 42 40.9 35 41.9 26C42.08 24.42 40.34 23.16 38.82 24.1C37.1873 25.1421 35.3046 25.7262 33.3688 25.7913C31.433 25.8563 29.5153 25.3998 27.8163 24.4696C26.1174 23.5394 24.6998 22.1697 23.7117 20.5037C22.7237 18.8378 22.2015 16.9369 22.2 15C22.2 12.88 22.82 10.88 23.88 9.21999C24.78 7.87999 23.8 5.95999 22.02 6.09999Z" fill="#111111"/>
</svg>
