<svg width="48" height="48" viewBox="0 0 48 48" fill="none" xmlns="http://www.w3.org/2000/svg">
<path d="M24 14C18.48 14 14 18.48 14 24C14 29.52 18.48 34 24 34C29.52 34 34 29.52 34 24C34 18.48 29.52 14 24 14ZM4 26H8C9.1 26 10 25.1 10 24C10 22.9 9.1 22 8 22H4C2.9 22 2 22.9 2 24C2 25.1 2.9 26 4 26ZM40 26H44C45.1 26 46 25.1 46 24C46 22.9 45.1 22 44 22H40C38.9 22 38 22.9 38 24C38 25.1 38.9 26 40 26ZM22 4V8C22 9.1 22.9 10 24 10C25.1 10 26 9.1 26 8V4C26 2.9 25.1 2 24 2C22.9 2 22 2.9 22 4ZM22 40V44C22 45.1 22.9 46 24 46C25.1 46 26 45.1 26 44V40C26 38.9 25.1 38 24 38C22.9 38 22 38.9 22 40ZM11.98 9.16C11.795 8.97459 11.5752 8.8275 11.3332 8.72713C11.0913 8.62677 10.8319 8.57511 10.57 8.57511C10.3081 8.57511 10.0487 8.62677 9.80675 8.72713C9.5648 8.8275 9.34503 8.97459 9.16 9.16C8.97459 9.34503 8.8275 9.5648 8.72713 9.80675C8.62677 10.0487 8.57511 10.3081 8.57511 10.57C8.57511 10.8319 8.62677 11.0913 8.72713 11.3332C8.8275 11.5752 8.97459 11.795 9.16 11.98L11.28 14.1C12.06 14.88 13.34 14.88 14.1 14.1C14.86 13.32 14.88 12.04 14.1 11.28L11.98 9.16ZM36.72 33.9C36.535 33.7146 36.3152 33.5675 36.0732 33.4671C35.8313 33.3668 35.5719 33.3151 35.31 33.3151C35.0481 33.3151 34.7887 33.3668 34.5468 33.4671C34.3048 33.5675 34.085 33.7146 33.9 33.9C33.7146 34.085 33.5675 34.3048 33.4671 34.5468C33.3668 34.7887 33.3151 35.0481 33.3151 35.31C33.3151 35.5719 33.3668 35.8313 33.4671 36.0732C33.5675 36.3152 33.7146 36.535 33.9 36.72L36.02 38.84C36.8 39.62 38.08 39.62 38.84 38.84C39.0254 38.655 39.1725 38.4352 39.2729 38.1932C39.3732 37.9513 39.4249 37.6919 39.4249 37.43C39.4249 37.1681 39.3732 36.9087 39.2729 36.6668C39.1725 36.4248 39.0254 36.205 38.84 36.02L36.72 33.9ZM38.84 11.98C39.0254 11.795 39.1725 11.5752 39.2729 11.3332C39.3732 11.0913 39.4249 10.8319 39.4249 10.57C39.4249 10.3081 39.3732 10.0487 39.2729 9.80675C39.1725 9.5648 39.0254 9.34503 38.84 9.16C38.655 8.97459 38.4352 8.8275 38.1932 8.72713C37.9513 8.62677 37.6919 8.57511 37.43 8.57511C37.1681 8.57511 36.9087 8.62677 36.6668 8.72713C36.4248 8.8275 36.205 8.97459 36.02 9.16L33.9 11.28C33.12 12.06 33.12 13.34 33.9 14.1C34.68 14.86 35.96 14.88 36.72 14.1L38.84 11.98ZM14.1 36.72C14.2854 36.535 14.4325 36.3152 14.5329 36.0732C14.6332 35.8313 14.6849 35.5719 14.6849 35.31C14.6849 35.0481 14.6332 34.7887 14.5329 34.5468C14.4325 34.3048 14.2854 34.085 14.1 33.9C13.915 33.7146 13.6952 33.5675 13.4532 33.4671C13.2113 33.3668 12.9519 33.3151 12.69 33.3151C12.4281 33.3151 12.1687 33.3668 11.9268 33.4671C11.6848 33.5675 11.465 33.7146 11.28 33.9L9.16 36.02C8.38 36.8 8.38 38.08 9.16 38.84C9.94 39.6 11.22 39.62 11.98 38.84L14.1 36.72Z" fill="#F8F8F8"/>
</svg>
