<svg width="48" height="44" viewBox="0 0 48 44" fill="none" xmlns="http://www.w3.org/2000/svg">
<path d="M38 2C39.0609 2 40.0783 2.42143 40.8284 3.17157C41.5786 3.92172 42 4.93913 42 6V34C42 35.0609 41.5786 36.0783 40.8284 36.8284C40.0783 37.5786 39.0609 38 38 38H10C8.93913 38 7.92172 37.5786 7.17157 36.8284C6.42143 36.0783 6 35.0609 6 34V6C6 4.93913 6.42143 3.92172 7.17157 3.17157C7.92172 2.42143 8.93913 2 10 2H38ZM37 33V22.4C37 20.6708 36.3131 19.0124 35.0903 17.7897C33.8676 16.5669 32.2092 15.88 30.48 15.88C28.78 15.88 26.8 16.92 25.84 18.48V16.26H20.26V33H25.84V23.14C25.84 21.6 27.08 20.34 28.62 20.34C29.3626 20.34 30.0748 20.635 30.5999 21.1601C31.125 21.6852 31.42 22.3974 31.42 23.14V33H37ZM13.76 13.12C14.6511 13.12 15.5058 12.766 16.1359 12.1359C16.766 11.5058 17.12 10.6511 17.12 9.76C17.12 7.9 15.62 6.38 13.76 6.38C12.8636 6.38 12.0039 6.73611 11.37 7.36998C10.7361 8.00385 10.38 8.86357 10.38 9.76C10.38 11.62 11.9 13.12 13.76 13.12ZM16.54 33V16.26H11V33H16.54Z" fill="#F8F8F8"/>
</svg>
